<?xml version="1.0" encoding="utf-8"?>
<!-- Generator: Adobe Illustrator 23.0.3, SVG Export Plug-In . SVG Version: 6.00 Build 0)  -->
<svg version="1.1" xmlns="http://www.w3.org/2000/svg" xmlns:xlink="http://www.w3.org/1999/xlink" x="0px" y="0px"
	 viewBox="0 0 1280 640" style="enable-background:new 0 0 1280 640;" xml:space="preserve">
<style type="text/css">
	.st0{display:none;}
	.st1{display:inline;fill:#FFFFFF;}
	.st2{fill:#5B41EC;}
	.st3{font-family:'Arial-Black';}
	.st4{font-size:251.3883px;}
	.st5{fill:#5388E8;}
	.st6{font-size:251.3893px;}
	.st7{clip-path:url(#SVGID_2_);fill:#FF33AD;}
</style>
<g id="Layer_1" class="st0">
	<rect x="84" y="80" class="st1" width="1112" height="475"/>
</g>
<g id="Layer_2">
	<g>
		<g>
			<text transform="matrix(0.9773 -0.2119 0.2119 0.9773 621.3331 355.9925)" class="st2 st3 st4">C</text>
		</g>
		<g>
			<text transform="matrix(0.9996 -2.742983e-02 2.742983e-02 0.9996 472.7899 281.6863)" class="st5 st3 st6">S</text>
		</g>
		<g>
			<defs>
				<path id="SVGID_1_" d="M742.5,263.1l-7.8,3.9l-91.4-78.7l7.8-3.9L742.5,263.1z M668.9,184.3l-7.8,3.9l91.4,78.7l7.8-3.9
					L668.9,184.3z M686.6,184.3l-7.8,3.9l91.4,78.7l7.8-3.9L686.6,184.3z M704.4,184.3l-7.8,3.9L788,267l7.8-3.9L704.4,184.3z
					 M722.1,184.3l-7.8,3.9l91.4,78.7l7.8-3.9L722.1,184.3z M739.9,184.3l-7.8,3.9l91.4,78.7l7.8-3.9L739.9,184.3z M757.6,184.3
					l-7.8,3.9l91.4,78.7l7.8-3.9L757.6,184.3z M775.4,184.3l-7.8,3.9L859,267l7.8-3.9L775.4,184.3z M793.1,184.3l-7.8,3.9l91.4,78.7
					l7.8-3.9L793.1,184.3z"/>
			</defs>
			<clipPath id="SVGID_2_">
				<use xlink:href="#SVGID_1_"  style="overflow:visible;"/>
			</clipPath>
			<path class="st7" d="M826.3,243.1h-61.7c-5.1,0-9.2-4.1-9.2-9.2v-8.2c0-5.1,4.1-9.2,9.2-9.2h61.7c5.1,0,9.2,4.1,9.2,9.2v8.2
				C835.4,239,831.3,243.1,826.3,243.1z"/>
		</g>
	</g>
	<g>
		<path d="M171.9,534.5c-28.9,0-49-6-61.4-18.4c-11.9-11.9-18.7-27.1-20.3-45.1L89,456.6l28.9-1.8c-1.7-1.2-3.2-2.4-4.7-3.7
			c-11.5-9.9-17.5-23.3-17.5-38.7c0-10.2,3-20,8.8-28.9c5.8-9,14.5-16,25.7-20.9c10.6-4.6,24.2-6.9,41.5-6.9
			c21.8,0,38.4,4.2,50.7,13c13.1,9.3,20.9,23.7,23.3,42.8l1.8,14.9l-17.7,1c5.4,4.2,9.7,9,12.9,14.3c5.2,8.6,7.8,18.3,7.8,28.8
			c0,12.1-3.4,23.4-10.1,33.6c-6.7,10.2-16,17.9-27.8,23.1C201.7,532,188,534.5,171.9,534.5z M162.7,472.1c0.5,1.1,0.9,1.8,1.1,2.1
			c1.3,1.7,3.4,3.4,8.8,3.4c2.8,0,4.5-0.5,5.3-0.8C176.5,476.1,172.4,474.3,162.7,472.1z"/>
		<path class="st2" d="M104.2,469.7l42.9-2.7c0.9,7,2.8,12.3,5.7,15.9c4.6,5.9,11.3,8.8,19.9,8.8c6.4,0,11.4-1.5,14.9-4.5
			c3.5-3,5.2-6.5,5.2-10.5c0-3.8-1.7-7.2-5-10.1c-3.3-3-11-5.8-23.1-8.4c-19.8-4.4-33.8-10.3-42.3-17.7
			c-8.5-7.4-12.7-16.7-12.7-28.1c0-7.5,2.2-14.6,6.5-21.2c4.3-6.7,10.9-11.9,19.6-15.7c8.7-3.8,20.7-5.7,35.8-5.7
			c18.6,0,32.8,3.5,42.6,10.4c9.8,6.9,15.6,17.9,17.4,33.1l-42.5,2.5c-1.1-6.6-3.5-11.3-7.1-14.3c-3.6-3-8.6-4.5-15-4.5
			c-5.2,0-9.2,1.1-11.8,3.3c-2.7,2.2-4,4.9-4,8.1c0,2.3,1.1,4.4,3.3,6.3c2.1,1.9,7.2,3.7,15.1,5.4c19.7,4.2,33.8,8.5,42.3,12.9
			c8.5,4.3,14.7,9.7,18.6,16.2c3.9,6.4,5.8,13.6,5.8,21.6c0,9.3-2.6,18-7.8,25.8c-5.2,7.9-12.4,13.9-21.7,17.9
			c-9.3,4.1-21,6.1-35.1,6.1c-24.8,0-42-4.8-51.5-14.3C110.9,496.5,105.5,484.4,104.2,469.7z"/>
		<polygon points="349.8,532 324.1,482 318.4,488 318.4,532 245.3,532 245.3,358.1 318.4,358.1 318.4,389.2 345.1,358.1 
			444.6,358.1 375.9,429.1 439,532 		"/>
		<path class="st2" d="M259.3,372.2h45v55.1l47.2-55.1h59.9l-53.2,55l55.6,90.7h-55.5L327.6,458l-23.3,24.4v35.6h-45V372.2z"/>
		<polygon points="456.7,532 456.7,461.1 387.7,358.1 472,358.1 493.4,393.9 514.9,358.1 599,358.1 530,461.1 530,532 		"/>
		<path class="st2" d="M414,372.2h50l29.4,49.2l29.4-49.2h49.8l-56.7,84.7v61h-45.1v-61L414,372.2z"/>
		<path d="M645.4,534.5c-17.8,0-32.8-2.8-44.7-8.2c-12.5-5.7-23.3-15.7-32-29.6c-8.7-13.8-13.1-31.3-13.1-52
			c0-27.8,7.8-49.9,23.3-65.5c15.5-15.7,37.2-23.6,64.4-23.6c21.2,0,38.5,4.6,51.4,13.7c13,9.2,22.6,23,28.6,41.3l4.9,14.8l-67.6,15
			l-3.9-12.3c-1.3-4.2-2.2-5.5-2.3-5.6c-1.3-1.7-2.7-2.9-4.3-3.8c-1.7-0.8-3.6-1.3-5.8-1.3c-5.5,0-8.9,1.7-11.7,6l-0.1,0.1
			c-1.1,1.7-3.8,7.1-3.8,20.8c0,18.3,3.5,23.5,4.2,24.3c1.6,1.9,3.9,3.8,9.8,3.8c4.5,0,7.5-0.9,9.1-2.7c2.7-2.9,4.8-8,6.2-14.6
			l3.2-14.9l66.8,20.2l-3.1,12.9c-3.1,13-8.2,24.1-15.1,33c-7.1,9.3-16.1,16.4-26.6,21.1C673.2,532.2,660.4,534.5,645.4,534.5z"/>
		<path class="st5" d="M671.9,458.3l39.5,11.9c-2.7,11.1-6.8,20.3-12.5,27.7c-5.7,7.4-12.8,13-21.2,16.8s-19.2,5.7-32.3,5.7
			c-15.8,0-28.8-2.3-38.8-6.9c-10-4.6-18.7-12.7-26-24.3c-7.3-11.6-10.9-26.4-10.9-44.5c0-24.1,6.4-42.6,19.2-55.6
			c12.8-12.9,31-19.4,54.4-19.4c18.4,0,32.8,3.7,43.3,11.1c10.5,7.4,18.3,18.8,23.4,34.2l-39.8,8.8c-1.4-4.4-2.8-7.7-4.4-9.7
			c-2.5-3.4-5.6-6.1-9.2-8c-3.6-1.9-7.7-2.8-12.2-2.8c-10.2,0-18,4.1-23.5,12.3c-4.1,6.1-6.2,15.7-6.2,28.7
			c0,16.2,2.5,27.2,7.4,33.2c4.9,6,11.8,9,20.7,9c8.6,0,15.1-2.4,19.5-7.3C666.8,474.5,670,467.5,671.9,458.3z"/>
		<polygon points="813.7,532 813.7,473 792.6,473 792.6,532 719.4,532 719.4,358.1 792.6,358.1 792.6,409.1 813.7,409.1 
			813.7,358.1 887,358.1 887,532 		"/>
		<path class="st5" d="M733.5,372.2h45v51h49.2v-51H873v145.8h-45.2v-59h-49.2v59h-45V372.2z"/>
		<polygon points="989.4,532 982.1,507.9 951.9,507.9 944.8,532 868,532 933.3,358.1 1001.9,358.1 1067.3,532 		"/>
		<path class="st5" d="M992.5,493.9h-51.1l-7.1,24.1h-46l54.8-145.8h49.1l54.8,145.8h-47.2L992.5,493.9z M983.2,462.3l-16.1-52.4
			l-15.9,52.4H983.2z"/>
		<polygon points="1068.9,532 1068.9,422.2 1023,422.2 1023,358.1 1188,358.1 1188,422.2 1142.1,422.2 1142.1,532 		"/>
		<path class="st5" d="M1037,372.2h136.9v36H1128v109.8h-45V408.1H1037V372.2z"/>
	</g>
</g>
</svg>
